<svg xmlns="http://www.w3.org/2000/svg" version="1.1" xmlns:xlink="http://www.w3.org/1999/xlink" xmlns:svgjs="http://svgjs.dev/svgjs" width="1000" height="1000" viewBox="0 0 1000 1000"><rect width="1000" height="1000" fill="#ffffff"></rect><g transform="matrix(0.7,0,0,0.7,149.57575757575756,282.1265587044535)"><svg viewBox="0 0 396 247" data-background-color="#2563eb" preserveAspectRatio="xMidYMid meet" height="623" width="1000" xmlns="http://www.w3.org/2000/svg" xmlns:xlink="http://www.w3.org/1999/xlink"><g id="tight-bounds" transform="matrix(1,0,0,1,0.2400000000000091,-0.09999999999999432)"><svg viewBox="0 0 395.52 247.2" height="247.2" width="395.52"><g><svg></svg></g><g><svg viewBox="0 0 395.52 247.2" height="247.2" width="395.52"><g transform="matrix(1,0,0,1,104.15631862799711,47.215199999999996)"><svg viewBox="0 0 187.20736274400576 152.7696" height="152.7696" width="187.20736274400576"><g><svg viewBox="0 0 245.65351679999995 200.4642816930602" height="152.7696" width="187.20736274400576"><g><rect width="245.65351679999995" height="4.358119316002656" x="0" y="106.11010574387916" fill="#000000" opacity="1" stroke-width="0" stroke="transparent" fill-opacity="1" class="rect-o-0" data-fill-palette-color="primary" rx="1%" id="o-0" data-palette-color="#ffffff"></rect></g><g><rect width="245.65351679999995" height="4.358119316002656" x="0" y="116.17256971433555" fill="#000000" opacity="1" stroke-width="0" stroke="transparent" fill-opacity="1" class="rect-o-1" data-fill-palette-color="primary" rx="1%" id="o-1" data-palette-color="#ffffff"></rect></g><g transform="matrix(1,0,0,1,0.6110783999999825,131.93937833924568)"><svg viewBox="0 0 244.43135999999998 68.52490335381452" height="68.52490335381452" width="244.43135999999998"><g id="textblocktransform"><svg viewBox="0 0 244.43135999999998 68.52490335381452" height="68.52490335381452" width="244.43135999999998" id="textblock"><g><svg viewBox="0 0 244.43135999999998 48.32634113127754" height="48.32634113127754" width="244.43135999999998"><g transform="matrix(1,0,0,1,0,0)"><svg width="244.43135999999998" viewBox="0.3500000238418579 -55.400001525878906 283.7200012207031 56.10000228881836" height="48.32634113127754" data-palette-color="#ffffff"><path d="M5.25 0.35Q4.25 0.35 3.93 0.08 3.6-0.2 3.6-0.85L3.6-0.85Q3.6-2 4.42-6.13 5.25-10.25 6.9-17.75L6.9-17.75Q7.95-22.5 8.8-26.68 9.65-30.85 9.65-31.65L9.65-31.65Q9.65-32.05 8.8-32.05L8.8-32.05Q8.3-32.05 6.4-31.75L6.4-31.75Q3.7-31.3 2.4-31.3L2.4-31.3Q1.25-31.3 0.8-31.58 0.35-31.85 0.35-32.55L0.35-32.55Q0.35-33.2 0.63-34.18 0.9-35.15 1.2-35.6L1.2-35.6Q3-34.9 5.75-34.9L5.75-34.9Q8.1-34.9 12.5-35.35L12.5-35.35Q13.1-35.4 15.65-35.6 18.2-35.8 20.2-35.8L20.2-35.8Q26.1-35.8 29.03-33.7 31.95-31.6 31.95-27.05L31.95-27.05Q31.95-23.25 30.08-20.35 28.2-17.45 25-15.88 21.8-14.3 18-14.3L18-14.3Q15.3-14.3 14.23-15 13.15-15.7 13.15-16.65L13.15-16.65Q13.15-17.1 13.38-17.53 13.6-17.95 13.9-18.2L13.9-18.2Q14.35-17.85 15.45-17.57 16.55-17.3 17.95-17.3L17.95-17.3Q20.8-17.3 22.85-18.5 24.9-19.7 25.98-21.75 27.05-23.8 27.05-26.35L27.05-26.35Q27.05-33 19.6-33L19.6-33Q17.6-33 15.98-32.55 14.35-32.1 14.1-31.1L14.1-31.1Q13.1-26.95 10.88-15.3 8.65-3.65 8.65-1.95L8.65-1.95Q8.65-1.5 8.7-1.03 8.75-0.55 8.75-0.15L8.75-0.15Q6.75 0.35 5.25 0.35L5.25 0.35ZM40.65 0.35Q38.35 0.35 37-0.88 35.65-2.1 35.65-4.8L35.65-4.8Q35.65-5.45 35.7-5.8L35.7-5.8 37.3-13.4Q38.3-18.5 38.6-19.65L38.6-19.65Q38.85-20.25 39.55-20.63 40.25-21 41.15-21L41.15-21Q41.95-21 42.47-20.68 43-20.35 43.05-19.95L43.05-19.95Q42-15.3 40.2-6.2L40.2-6.2Q40.15-5.8 40.15-5.15L40.15-5.15Q40.15-3.75 40.75-3.15 41.35-2.55 42.5-2.55L42.5-2.55Q44.5-2.55 46.8-3.98 49.1-5.4 51.07-7.53 53.05-9.65 54.15-11.75L54.15-11.75Q54.9-11.45 54.9-10.75L54.9-10.75Q54.9-10.25 54.7-9.73 54.5-9.2 54.45-9.05L54.45-9.05Q53.5-6.8 51.17-4.6 48.85-2.4 45.97-1.03 43.1 0.35 40.65 0.35L40.65 0.35ZM41.75-26.2Q40.55-26.2 39.92-26.9 39.3-27.6 39.3-28.8L39.3-28.8Q39.3-30.35 40.2-31.4 41.1-32.45 42.65-32.45L42.65-32.45Q43.85-32.45 44.5-31.8 45.15-31.15 45.15-29.95L45.15-29.95Q45.15-28.4 44.2-27.3 43.25-26.2 41.75-26.2L41.75-26.2ZM79.7-55.4Q82-55.4 84.15-54.6 86.3-53.8 87.72-52.08 89.15-50.35 89.15-47.7L89.15-47.7Q89.15-47.1 89.05-46.43 88.95-45.75 88.8-45.4L88.8-45.4Q85.34-50.4 78.59-50.4L78.59-50.4Q75.15-50.4 71.75-47.5 68.34-44.6 65.34-39.03 62.35-33.45 60.15-25.7L60.15-25.7Q58.5-19.8 57.52-15.9 56.55-12 55.35-6.5L55.35-6.5Q58.9-11.45 63.17-16.57 67.45-21.7 68.2-21.7L68.2-21.7Q68.9-21.7 70.62-21.08 72.34-20.45 72.75-19.7L72.75-19.7Q68.25-16.3 63.2-11.4L63.2-11.4Q63.4-7.05 64.7-4.78 66-2.5 68.25-2.5L68.25-2.5Q70.05-2.5 72.32-3.95 74.59-5.4 76.55-7.88 78.5-10.35 79.4-13.25L79.4-13.25Q80.05-13.25 80.37-12.83 80.7-12.4 80.7-11.75L80.7-11.75Q80.7-9.9 78.45-6.9 76.2-3.9 73-1.65 69.8 0.6 66.95 0.6L66.95 0.6Q64.05 0.6 62.32-1.78 60.6-4.15 60.15-8.3L60.15-8.3Q56.55-4.55 53.05-0.3L53.05-0.3Q52.95-0.15 52.65 0.28 52.35 0.7 52.15 0.7L52.15 0.7Q51.75 0.7 51.07 0.08 50.4-0.55 50.35-1L50.35-1Q50.25-2.45 52.47-12.5 54.7-22.55 56.45-28.8L56.45-28.8Q58.85-37.3 62.45-43.28 66.05-49.25 70.47-52.33 74.9-55.4 79.7-55.4L79.7-55.4ZM105.14-11.2Q105.59-11.2 105.84-10.88 106.09-10.55 106.09-10.05L106.09-10.05Q106.09-8.7 104.42-6.08 102.74-3.45 99.94-1.43 97.14 0.6 93.74 0.6L93.74 0.6Q91.14 0.6 89.72-0.68 88.29-1.95 88.29-4.05L88.29-4.05Q88.29-5.3 88.77-7.15 89.24-9 90.09-11.8L90.09-11.8Q90.89-14.4 91.39-16.45L91.39-16.45Q91.34-16.75 90.99-16.75L90.99-16.75Q90.29-16.75 88.29-14.95 86.29-13.15 84.34-10.9 82.39-8.65 81.94-7.55L81.94-7.55Q81.04-3.5 80.84-2.18 80.64-0.85 80.59-0.7L80.59-0.7Q80.54-0.55 80.49-0.33 80.44-0.1 80.37-0.05 80.29 0 80.14 0L80.14 0Q79.39 0 77.79-0.1 76.19-0.2 76.19-0.4L76.19-0.4Q76.49-2.2 77.74-7.9L77.74-7.9Q77.99-9.3 77.99-9.25L77.99-9.25 80.24-20.25Q80.29-20.6 80.47-20.68 80.64-20.75 81.19-20.75L81.19-20.75Q83.54-20.75 84.59-20L84.59-20Q84.54-19.8 84.04-17.53 83.54-15.25 82.59-11.75L82.59-11.75Q85.39-15.15 88.34-17.9 91.29-20.65 92.34-20.65L92.34-20.65Q92.89-20.65 94.57-20.1 96.24-19.55 96.34-19.2L96.34-19.2 95.44-15.8Q94.14-11.15 93.49-8.4 92.84-5.65 92.84-4.2L92.84-4.2Q92.84-1.9 94.99-1.9L94.99-1.9Q96.74-1.9 98.82-3.28 100.89-4.65 102.62-6.83 104.34-9 105.14-11.2L105.14-11.2ZM108.04 0.35Q105.74 0.35 104.39-0.88 103.04-2.1 103.04-4.8L103.04-4.8Q103.04-5.45 103.09-5.8L103.09-5.8 104.69-13.4Q105.69-18.5 105.99-19.65L105.99-19.65Q106.24-20.25 106.94-20.63 107.64-21 108.54-21L108.54-21Q109.34-21 109.87-20.68 110.39-20.35 110.44-19.95L110.44-19.95Q109.39-15.3 107.59-6.2L107.59-6.2Q107.54-5.8 107.54-5.15L107.54-5.15Q107.54-3.75 108.14-3.15 108.74-2.55 109.89-2.55L109.89-2.55Q111.89-2.55 114.19-3.98 116.49-5.4 118.47-7.53 120.44-9.65 121.54-11.75L121.54-11.75Q122.29-11.45 122.29-10.75L122.29-10.75Q122.29-10.25 122.09-9.73 121.89-9.2 121.84-9.05L121.84-9.05Q120.89-6.8 118.57-4.6 116.24-2.4 113.37-1.03 110.49 0.35 108.04 0.35L108.04 0.35ZM109.14-26.2Q107.94-26.2 107.32-26.9 106.69-27.6 106.69-28.8L106.69-28.8Q106.69-30.35 107.59-31.4 108.49-32.45 110.04-32.45L110.04-32.45Q111.24-32.45 111.89-31.8 112.54-31.15 112.54-29.95L112.54-29.95Q112.54-28.4 111.59-27.3 110.64-26.2 109.14-26.2L109.14-26.2ZM147.09-55.4Q149.39-55.4 151.54-54.6 153.69-53.8 155.11-52.08 156.54-50.35 156.54-47.7L156.54-47.7Q156.54-47.1 156.44-46.43 156.34-45.75 156.19-45.4L156.19-45.4Q152.74-50.4 145.99-50.4L145.99-50.4Q142.54-50.4 139.14-47.5 135.74-44.6 132.74-39.03 129.74-33.45 127.54-25.7L127.54-25.7Q125.89-19.8 124.91-15.9 123.94-12 122.74-6.5L122.74-6.5Q126.29-11.45 130.56-16.57 134.84-21.7 135.59-21.7L135.59-21.7Q136.29-21.7 138.01-21.08 139.74-20.45 140.14-19.7L140.14-19.7Q135.64-16.3 130.59-11.4L130.59-11.4Q130.79-7.05 132.09-4.78 133.39-2.5 135.64-2.5L135.64-2.5Q137.44-2.5 139.71-3.95 141.99-5.4 143.94-7.88 145.89-10.35 146.79-13.25L146.79-13.25Q147.44-13.25 147.76-12.83 148.09-12.4 148.09-11.75L148.09-11.75Q148.09-9.9 145.84-6.9 143.59-3.9 140.39-1.65 137.19 0.6 134.34 0.6L134.34 0.6Q131.44 0.6 129.71-1.78 127.99-4.15 127.54-8.3L127.54-8.3Q123.94-4.55 120.44-0.3L120.44-0.3Q120.34-0.15 120.04 0.28 119.74 0.7 119.54 0.7L119.54 0.7Q119.14 0.7 118.46 0.08 117.79-0.55 117.74-1L117.74-1Q117.64-2.45 119.86-12.5 122.09-22.55 123.84-28.8L123.84-28.8Q126.24-37.3 129.84-43.28 133.44-49.25 137.86-52.33 142.29-55.4 147.09-55.4L147.09-55.4ZM145.49 0.5Q144.44 0.5 143.84-0.1 143.24-0.7 143.24-1.85L143.24-1.85Q143.24-3.35 144.16-4.35 145.09-5.35 146.59-5.35L146.59-5.35Q148.84-5.35 148.84-3.1L148.84-3.1Q148.84-1.6 147.91-0.55 146.99 0.5 145.49 0.5L145.49 0.5ZM181.23-49.2Q176.78-49.2 173.76-47.63 170.73-46.05 168.41-41.73 166.08-37.4 164.23-29.25L164.23-29.25Q163.43-25.7 161.91-18.03 160.38-10.35 159.58-5.7L159.58-5.7Q159.58-4.2 160.18-3.25 160.78-2.3 162.08-2.3L162.08-2.3Q164.33-2.3 165.56-5.05 166.78-7.8 166.78-11L166.78-11Q166.78-12.9 166.31-14.7 165.83-16.5 165.03-17.8L165.03-17.8Q164.98-18.3 166.08-19.58 167.18-20.85 167.68-20.95L167.68-20.95Q168.88-19.05 169.96-17.85 171.03-16.65 172.86-15.88 174.68-15.1 177.53-15.1L177.53-15.1Q181.88-15.1 184.13-17.4L184.13-17.4Q184.38-17.15 184.38-16.8L184.38-16.8Q184.38-15.8 183.21-14.83 182.03-13.85 180.08-13.23 178.13-12.6 175.98-12.6L175.98-12.6Q172.93-12.6 170.53-13.7L170.53-13.7Q170.98-12.15 170.98-10.45L170.98-10.45Q170.98-7.5 169.68-4.95 168.38-2.4 166.23-0.9 164.08 0.6 161.63 0.6L161.63 0.6Q159.83 0.6 158.23-0.18 156.63-0.95 155.68-2.18 154.73-3.4 154.73-4.65L154.73-4.65Q155.43-8.7 156.91-15.83 158.38-22.95 159.38-27.3L159.38-27.3Q162.48-40.5 167.93-46.95 173.38-53.4 180.23-53.4L180.23-53.4Q183.38-53.4 184.96-52.13 186.53-50.85 187.28-48.5L187.28-48.5 187.23-48.05Q185.63-48.7 184.28-48.95 182.93-49.2 181.23-49.2L181.23-49.2ZM206.68-11.7Q207.48-11.5 207.48-10.8L207.48-10.8Q207.48-9.6 205.63-6.85 203.78-4.1 201.11-1.93 198.43 0.25 195.78 0.25L195.78 0.25Q193.78 0.25 192.38-1.03 190.98-2.3 190.93-4.3L190.93-4.3Q189.58-2.45 187.83-1.1 186.08 0.25 184.53 0.25L184.53 0.25Q182.98 0.25 181.28-1 179.58-2.25 179.38-3.6L179.38-3.6 182.33-19.8Q182.53-20.75 182.98-20.75L182.98-20.75Q183.58-20.75 185.16-20.33 186.73-19.9 186.73-19.5L186.73-19.5Q186.73-19.35 186.28-17.55L186.28-17.55Q185.78-15.45 184.91-11.1 184.03-6.75 183.73-4.85L183.73-4.85Q183.83-4.15 184.46-3.58 185.08-3 185.93-3L185.93-3Q187.38-3 188.96-4.73 190.53-6.45 191.58-10.1L191.58-10.1Q192.48-13.15 193.88-20.2L193.88-20.2Q193.98-20.75 194.43-20.75L194.43-20.75Q195.08-20.75 196.51-20.33 197.93-19.9 197.93-19.4L197.93-19.4Q196.48-14.2 195.48-10 194.48-5.8 194.48-4.5L194.48-4.5Q194.48-3.55 195.06-2.9 195.63-2.25 196.73-2.25L196.73-2.25Q198.83-2.25 201.53-4.73 204.23-7.2 206.68-11.7L206.68-11.7ZM230.88-11.2Q231.33-11.2 231.58-10.88 231.83-10.55 231.83-10.05L231.83-10.05Q231.83-8.7 230.15-6.08 228.48-3.45 225.68-1.43 222.88 0.6 219.48 0.6L219.48 0.6Q216.88 0.6 215.45-0.68 214.03-1.95 214.03-4.05L214.03-4.05Q214.03-5.3 214.5-7.15 214.98-9 215.83-11.8L215.83-11.8Q216.63-14.4 217.13-16.45L217.13-16.45Q217.08-16.75 216.73-16.75L216.73-16.75Q216.03-16.75 214.03-14.95 212.03-13.15 210.08-10.9 208.13-8.65 207.68-7.55L207.68-7.55Q206.78-3.5 206.58-2.18 206.38-0.85 206.33-0.7L206.33-0.7Q206.28-0.55 206.23-0.33 206.18-0.1 206.1-0.05 206.03 0 205.88 0L205.88 0Q205.13 0 203.53-0.1 201.93-0.2 201.93-0.4L201.93-0.4Q202.23-2.2 203.48-7.9L203.48-7.9Q203.73-9.3 203.73-9.25L203.73-9.25 205.98-20.25Q206.03-20.6 206.2-20.68 206.38-20.75 206.93-20.75L206.93-20.75Q209.28-20.75 210.33-20L210.33-20Q210.28-19.8 209.78-17.53 209.28-15.25 208.33-11.75L208.33-11.75Q211.13-15.15 214.08-17.9 217.03-20.65 218.08-20.65L218.08-20.65Q218.63-20.65 220.3-20.1 221.98-19.55 222.08-19.2L222.08-19.2 221.18-15.8Q219.88-11.15 219.23-8.4 218.58-5.65 218.58-4.2L218.58-4.2Q218.58-1.9 220.73-1.9L220.73-1.9Q222.48-1.9 224.55-3.28 226.63-4.65 228.35-6.83 230.08-9 230.88-11.2L230.88-11.2ZM266.48-52.9Q269.28-52.9 271.1-51.53 272.93-50.15 273.23-47.7L273.23-47.7 273.23-47.25Q270.28-48.65 266.28-48.65L266.28-48.65Q262.38-48.65 259.65-47.6 256.93-46.55 254.65-43.28 252.38-40 250.68-33.55L250.68-33.55Q248.83-26.6 247.03-17.75 245.23-8.9 245.23-6.15L245.23-6.15Q245.23-4.3 245.8-3.45 246.38-2.6 247.48-2.6L247.48-2.6Q249.73-2.6 252.43-4.88 255.13-7.15 257.13-10.7L257.13-10.7Q257.78-10.5 257.78-9.7L257.78-9.7Q257.78-8.05 256.1-5.65 254.43-3.25 251.65-1.5 248.88 0.25 245.78 0.25L245.78 0.25Q243.88 0.25 242.58-0.98 241.28-2.2 240.83-4.35L240.83-4.35Q239.38-2.4 237.35-1 235.33 0.4 233.48 0.4L233.48 0.4Q232.08 0.4 230.85-0.45 229.63-1.3 228.9-2.58 228.18-3.85 228.18-5.05L228.18-5.05Q228.53-6.25 228.83-7.83 229.13-9.4 229.38-10.95L229.38-10.95Q229.53-11.7 229.7-12.73 229.88-13.75 230.13-15L230.13-15Q230.33-16.05 231.65-17.5 232.98-18.95 234.95-20 236.93-21.05 239.03-21.05L239.03-21.05Q240.83-21.05 243.03-19.7L243.03-19.7Q243.83-23.9 244.73-27.8L244.73-27.8Q247.73-40.7 253.4-46.8 259.08-52.9 266.48-52.9L266.48-52.9ZM241.48-11.75L242.58-17.3Q241.78-17.8 240.78-18.1 239.78-18.4 238.98-18.4L238.98-18.4Q237.43-18.4 236.15-17.25 234.88-16.1 234.43-14.35L234.43-14.35Q234.13-13.1 233.43-9.55L233.43-9.55Q232.98-7.05 232.63-5.7L232.63-5.7Q232.63-4.45 233.25-3.53 233.88-2.6 234.73-2.6L234.73-2.6Q236.73-2.6 238.65-5.08 240.58-7.55 241.48-11.75L241.48-11.75ZM283.17-12.05Q284.07-12.05 284.07-10.55L284.07-10.55Q284.07-8.15 282.15-5.53 280.22-2.9 277.37-1.15 274.52 0.6 272.12 0.6L272.12 0.6Q270.22 0.6 268.8-0.5 267.37-1.6 266.77-3.35L266.77-3.35Q265.42-1.65 263.52-0.63 261.62 0.4 260.12 0.4L260.12 0.4Q258.82 0.4 257.52-0.38 256.22-1.15 255.32-2.35 254.42-3.55 254.37-4.75L254.37-4.75Q255.52-9.85 256.42-14.65L256.42-14.65Q256.62-15.65 258.12-17.18 259.62-18.7 261.72-19.8 263.82-20.9 265.72-20.9L265.72-20.9Q267.47-20.9 269.27-19.85L269.27-19.85Q269.62-20.7 269.82-20.93 270.02-21.15 270.42-21.2L270.42-21.2 274.77-21.45 274.92-21.35Q274.32-20.85 274.02-20.25 273.72-19.65 273.47-18.85L273.47-18.85Q272.57-15.8 271.62-11.48 270.67-7.15 270.67-5.5L270.67-5.5Q270.67-4.1 271.35-2.95 272.02-1.8 273.47-1.8L273.47-1.8Q274.97-1.8 276.95-3.1 278.92-4.4 280.65-6.75 282.37-9.1 283.17-12.05L283.17-12.05ZM261.72-2.6Q262.42-2.6 263.42-3.3 264.42-4 265.3-5.2 266.17-6.4 266.52-7.85L266.52-7.85 267.32-11.6Q268.22-16.2 268.57-17.65L268.57-17.65Q267.27-18.25 265.82-18.25L265.82-18.25Q263.47-18.25 262.3-16.78 261.12-15.3 260.72-13.45L260.72-13.45 259.17-5.9Q259.27-4.65 260.07-3.63 260.87-2.6 261.72-2.6L261.72-2.6Z" opacity="1" transform="matrix(1,0,0,1,0,0)" fill="#000000" class="wordmark-text-0" data-fill-palette-color="primary" id="text-0"></path></svg></g></svg></g><g transform="matrix(1,0,0,1,46.68638976,59.735030440185014)"><svg viewBox="0 0 151.05858048 8.789872913629514" height="8.789872913629514" width="151.05858048"><g transform="matrix(1,0,0,1,0,0)"><svg width="151.05858048" viewBox="1.9500000476837158 -37.5 823.1099853515625 47.900001525878906" height="8.789872913629514" data-palette-color="#ffffff"><path d="M14.6-15.84L14.6-15.84Q8.57-17.58 5.82-20.1 3.08-22.63 3.08-26.34L3.08-26.34Q3.08-30.54 6.43-33.29 9.79-36.04 15.16-36.04L15.16-36.04Q18.82-36.04 21.69-34.62 24.56-33.2 26.14-30.71 27.71-28.22 27.71-25.27L27.71-25.27 23-25.27Q23-28.49 20.95-30.33 18.9-32.18 15.16-32.18L15.16-32.18Q11.69-32.18 9.75-30.65 7.81-29.13 7.81-26.42L7.81-26.42Q7.81-24.24 9.66-22.74 11.5-21.24 15.93-20 20.36-18.75 22.86-17.25 25.37-15.75 26.57-13.75 27.78-11.74 27.78-9.03L27.78-9.03Q27.78-4.71 24.41-2.11 21.04 0.49 15.41 0.49L15.41 0.49Q11.74 0.49 8.57-0.92 5.4-2.32 3.67-4.76 1.95-7.2 1.95-10.3L1.95-10.3 6.67-10.3Q6.67-7.08 9.05-5.21 11.43-3.34 15.41-3.34L15.41-3.34Q19.12-3.34 21.09-4.86 23.07-6.37 23.07-8.98 23.07-11.6 21.24-13.02 19.41-14.45 14.6-15.84ZM44.04 0.49L44.04 0.49Q38.67 0.49 35.3-3.04 31.93-6.57 31.93-12.48L31.93-12.48 31.93-13.31Q31.93-17.24 33.43-20.32 34.93-23.41 37.63-25.16 40.33-26.9 43.48-26.9L43.48-26.9Q48.63-26.9 51.49-23.51 54.34-20.12 54.34-13.79L54.34-13.79 54.34-11.91 36.45-11.91Q36.55-8.01 38.73-5.6 40.92-3.2 44.28-3.2L44.28-3.2Q46.68-3.2 48.34-4.17 50-5.15 51.24-6.76L51.24-6.76 54-4.61Q50.68 0.49 44.04 0.49ZM43.48-23.19L43.48-23.19Q40.74-23.19 38.89-21.2 37.03-19.21 36.59-15.63L36.59-15.63 49.83-15.63 49.83-15.97Q49.63-19.41 47.97-21.3 46.31-23.19 43.48-23.19ZM76.68-26.42L82.95-6.23 88.03-26.42 92.55-26.42 84.86 0 81.2 0 74.78-20.02 68.53 0 64.86 0 57.2-26.42 61.69-26.42 66.89-6.64 73.04-26.42 76.68-26.42ZM118.18 0L113.44 0Q113.05-0.78 112.81-2.78L112.81-2.78Q109.66 0.49 105.29 0.49L105.29 0.49Q101.38 0.49 98.88-1.72 96.38-3.93 96.38-7.32L96.38-7.32Q96.38-11.45 99.52-13.73 102.65-16.02 108.34-16.02L108.34-16.02 112.74-16.02 112.74-18.09Q112.74-20.46 111.32-21.86 109.9-23.27 107.15-23.27L107.15-23.27Q104.73-23.27 103.09-22.05 101.46-20.83 101.46-19.09L101.46-19.09 96.92-19.09Q96.92-21.07 98.32-22.91 99.72-24.76 102.13-25.83 104.53-26.9 107.41-26.9L107.41-26.9Q111.98-26.9 114.57-24.62 117.16-22.34 117.25-18.33L117.25-18.33 117.25-6.18Q117.25-2.54 118.18-0.39L118.18-0.39 118.18 0ZM105.95-3.44L105.95-3.44Q108.07-3.44 109.98-4.54 111.88-5.64 112.74-7.4L112.74-7.4 112.74-12.82 109.2-12.82Q100.9-12.82 100.9-7.96L100.9-7.96Q100.9-5.83 102.31-4.64 103.73-3.44 105.95-3.44ZM160.44 0L157.04-9.28 142.15-9.28 138.81 0 133.97 0 147.55-35.55 151.65-35.55 165.25 0 160.44 0ZM149.6-29.76L143.57-13.13 155.65-13.13 149.6-29.76ZM174.23-37.5L174.23 0 169.71 0 169.71-37.5 174.23-37.5ZM202.5 0L197.76 0Q197.37-0.78 197.13-2.78L197.13-2.78Q193.98 0.49 189.61 0.49L189.61 0.49Q185.7 0.49 183.2-1.72 180.7-3.93 180.7-7.32L180.7-7.32Q180.7-11.45 183.83-13.73 186.97-16.02 192.66-16.02L192.66-16.02 197.05-16.02 197.05-18.09Q197.05-20.46 195.64-21.86 194.22-23.27 191.46-23.27L191.46-23.27Q189.05-23.27 187.41-22.05 185.77-20.83 185.77-19.09L185.77-19.09 181.23-19.09Q181.23-21.07 182.64-22.91 184.04-24.76 186.44-25.83 188.85-26.9 191.73-26.9L191.73-26.9Q196.3-26.9 198.88-24.62 201.47-22.34 201.57-18.33L201.57-18.33 201.57-6.18Q201.57-2.54 202.5-0.39L202.5-0.39 202.5 0ZM190.27-3.44L190.27-3.44Q192.39-3.44 194.29-4.54 196.2-5.64 197.05-7.4L197.05-7.4 197.05-12.82 193.51-12.82Q185.21-12.82 185.21-7.96L185.21-7.96Q185.21-5.83 186.63-4.64 188.04-3.44 190.27-3.44ZM210.26-32.81L214.77-32.81 214.77-26.42 219.71-26.42 219.71-22.92 214.77-22.92 214.77-6.54Q214.77-4.96 215.43-4.16 216.09-3.37 217.68-3.37L217.68-3.37Q218.46-3.37 219.83-3.66L219.83-3.66 219.83 0Q218.05 0.49 216.36 0.49L216.36 0.49Q213.33 0.49 211.8-1.34 210.26-3.17 210.26-6.54L210.26-6.54 210.26-22.92 205.45-22.92 205.45-26.42 210.26-26.42 210.26-32.81ZM251.12-13.92L242.75-13.92 242.75 0 238.06 0 238.06-35.55 251.17-35.55Q257.01-35.55 260.31-32.57 263.62-29.59 263.62-24.68L263.62-24.68Q263.62-19.51 260.39-16.71 257.15-13.92 251.12-13.92L251.12-13.92ZM242.75-31.69L242.75-17.75 251.17-17.75Q254.93-17.75 256.93-19.52 258.93-21.29 258.93-24.63L258.93-24.63Q258.93-27.81 256.93-29.71 254.93-31.62 251.44-31.69L251.44-31.69 242.75-31.69ZM273.8-26.42L273.8 0 269.28 0 269.28-26.42 273.8-26.42ZM268.92-33.42L268.92-33.42Q268.92-34.52 269.59-35.28 270.26-36.04 271.58-36.04 272.9-36.04 273.58-35.28 274.26-34.52 274.26-33.42 274.26-32.32 273.58-31.59 272.9-30.86 271.58-30.86 270.26-30.86 269.59-31.59 268.92-32.32 268.92-33.42ZM297.6 0L288.4-12.23 285.57-9.28 285.57 0 281.05 0 281.05-37.5 285.57-37.5 285.57-14.82 287.98-17.72 296.21-26.42 301.7-26.42 291.43-15.38 302.9 0 297.6 0ZM306.36-26.42L310.64-26.42 310.78-23.1Q313.81-26.9 318.69-26.9L318.69-26.9Q327.07-26.9 327.14-17.46L327.14-17.46 327.14 0 322.62 0 322.62-17.48Q322.6-20.34 321.32-21.7 320.04-23.07 317.33-23.07L317.33-23.07Q315.13-23.07 313.47-21.9 311.81-20.73 310.88-18.82L310.88-18.82 310.88 0 306.36 0 306.36-26.42ZM338.86-26.42L338.86 0 334.34 0 334.34-26.42 338.86-26.42ZM333.97-33.42L333.97-33.42Q333.97-34.52 334.65-35.28 335.32-36.04 336.63-36.04 337.95-36.04 338.64-35.28 339.32-34.52 339.32-33.42 339.32-32.32 338.64-31.59 337.95-30.86 336.63-30.86 335.32-30.86 334.65-31.59 333.97-32.32 333.97-33.42ZM362.66 0L353.45-12.23 350.62-9.28 350.62 0 346.11 0 346.11-37.5 350.62-37.5 350.62-14.82 353.04-17.72 361.27-26.42 366.76-26.42 356.48-15.38 367.96 0 362.66 0ZM371.27 7.08L371.27 7.08 368.71 5.32Q371 2.12 371.1-1.27L371.1-1.27 371.1-5.35 375.52-5.35 375.52-1.81Q375.52 0.66 374.31 3.13 373.1 5.59 371.27 7.08ZM415.75-11.28L420.46-11.28Q419.8-5.64 416.3-2.58 412.8 0.49 406.99 0.49L406.99 0.49Q400.69 0.49 396.89-4.03 393.09-8.54 393.09-16.11L393.09-16.11 393.09-19.53Q393.09-24.49 394.86-28.25 396.63-32.01 399.88-34.02 403.13-36.04 407.4-36.04L407.4-36.04Q413.07-36.04 416.48-32.87 419.9-29.71 420.46-24.12L420.46-24.12 415.75-24.12Q415.14-28.37 413.1-30.27 411.06-32.18 407.4-32.18L407.4-32.18Q402.91-32.18 400.36-28.86 397.81-25.54 397.81-19.41L397.81-19.41 397.81-15.97Q397.81-10.18 400.22-6.76 402.64-3.34 406.99-3.34L406.99-3.34Q410.89-3.34 412.98-5.11 415.07-6.88 415.75-11.28L415.75-11.28ZM447.19 0L442.46 0Q442.07-0.78 441.82-2.78L441.82-2.78Q438.67 0.49 434.3 0.49L434.3 0.49Q430.4 0.49 427.89-1.72 425.39-3.93 425.39-7.32L425.39-7.32Q425.39-11.45 428.53-13.73 431.67-16.02 437.35-16.02L437.35-16.02 441.75-16.02 441.75-18.09Q441.75-20.46 440.33-21.86 438.92-23.27 436.16-23.27L436.16-23.27Q433.74-23.27 432.11-22.05 430.47-20.83 430.47-19.09L430.47-19.09 425.93-19.09Q425.93-21.07 427.33-22.91 428.74-24.76 431.14-25.83 433.55-26.9 436.43-26.9L436.43-26.9Q440.99-26.9 443.58-24.62 446.17-22.34 446.27-18.33L446.27-18.33 446.27-6.18Q446.27-2.54 447.19-0.39L447.19-0.39 447.19 0ZM434.96-3.44L434.96-3.44Q437.09-3.44 438.99-4.54 440.89-5.64 441.75-7.4L441.75-7.4 441.75-12.82 438.21-12.82Q429.91-12.82 429.91-7.96L429.91-7.96Q429.91-5.83 431.32-4.64 432.74-3.44 434.96-3.44ZM453.32-26.42L457.59-26.42 457.71-23.49Q460.62-26.9 465.55-26.9L465.55-26.9Q471.09-26.9 473.09-22.66L473.09-22.66Q474.41-24.56 476.52-25.73 478.64-26.9 481.52-26.9L481.52-26.9Q490.21-26.9 490.36-17.7L490.36-17.7 490.36 0 485.84 0 485.84-17.43Q485.84-20.26 484.54-21.67 483.25-23.07 480.2-23.07L480.2-23.07Q477.68-23.07 476.02-21.57 474.36-20.07 474.1-17.53L474.1-17.53 474.1 0 469.55 0 469.55-17.31Q469.55-23.07 463.91-23.07L463.91-23.07Q459.47-23.07 457.84-19.29L457.84-19.29 457.84 0 453.32 0 453.32-26.42ZM519.48-13.33L519.48-12.92Q519.48-6.88 516.72-3.2 513.96 0.49 509.25 0.49L509.25 0.49Q504.44 0.49 501.68-2.56L501.68-2.56 501.68 10.16 497.16 10.16 497.16-26.42 501.29-26.42 501.51-23.49Q504.27-26.9 509.18-26.9L509.18-26.9Q513.94-26.9 516.71-23.32 519.48-19.73 519.48-13.33L519.48-13.33ZM514.96-13.43L514.96-13.43Q514.96-17.9 513.06-20.48 511.15-23.07 507.83-23.07L507.83-23.07Q503.73-23.07 501.68-19.43L501.68-19.43 501.68-6.81Q503.71-3.2 507.88-3.2L507.88-3.2Q511.13-3.2 513.05-5.77 514.96-8.35 514.96-13.43ZM530.12-26.42L530.12 0 525.6 0 525.6-26.42 530.12-26.42ZM525.24-33.42L525.24-33.42Q525.24-34.52 525.91-35.28 526.58-36.04 527.9-36.04 529.22-36.04 529.9-35.28 530.58-34.52 530.58-33.42 530.58-32.32 529.9-31.59 529.22-30.86 527.9-30.86 526.58-30.86 525.91-31.59 525.24-32.32 525.24-33.42ZM537.34-26.42L541.62-26.42 541.76-23.1Q544.79-26.9 549.67-26.9L549.67-26.9Q558.05-26.9 558.12-17.46L558.12-17.46 558.12 0 553.6 0 553.6-17.48Q553.58-20.34 552.3-21.7 551.02-23.07 548.31-23.07L548.31-23.07Q546.11-23.07 544.45-21.9 542.79-20.73 541.86-18.82L541.86-18.82 541.86 0 537.34 0 537.34-26.42ZM563.86-13.43L563.86-13.43Q563.86-19.6 566.71-23.25 569.57-26.9 574.28-26.9L574.28-26.9Q579.11-26.9 581.82-23.49L581.82-23.49 582.04-26.42 586.17-26.42 586.17-0.63Q586.17 4.49 583.13 7.45 580.09 10.4 574.96 10.4L574.96 10.4Q572.11 10.4 569.37 9.18 566.64 7.96 565.2 5.83L565.2 5.83 567.54 3.13Q570.45 6.71 574.65 6.71L574.65 6.71Q577.94 6.71 579.79 4.86 581.63 3 581.63-0.37L581.63-0.37 581.63-2.64Q578.92 0.49 574.23 0.49L574.23 0.49Q569.59 0.49 566.72-3.25 563.86-6.98 563.86-13.43ZM568.4-12.92L568.4-12.92Q568.4-8.45 570.23-5.9 572.06-3.34 575.36-3.34L575.36-3.34Q579.63-3.34 581.63-7.23L581.63-7.23 581.63-19.29Q579.55-23.07 575.4-23.07L575.4-23.07Q572.11-23.07 570.25-20.51 568.4-17.94 568.4-12.92ZM604.4-9.55L604.4-9.55Q604.4-12.11 605.83-14.26 607.26-16.41 611.29-19.26L611.29-19.26Q608.92-22.14 608.11-23.9 607.31-25.66 607.31-27.39L607.31-27.39Q607.31-31.45 609.7-33.74 612.09-36.04 616.19-36.04L616.19-36.04Q619.86-36.04 622.25-33.9 624.64-31.76 624.64-28.52L624.64-28.52Q624.64-26.37 623.56-24.55 622.47-22.73 619.76-20.73L619.76-20.73 617.15-18.8 625.06-9.35Q626.72-12.52 626.72-16.41L626.72-16.41 630.79-16.41Q630.79-10.18 627.79-6.08L627.79-6.08 632.87 0 627.45 0 625.08-2.81Q623.27-1.2 620.85-0.35 618.42 0.49 615.9 0.49L615.9 0.49Q610.7 0.49 607.55-2.27 604.4-5.03 604.4-9.55ZM615.9-3.2L615.9-3.2Q619.49-3.2 622.47-5.93L622.47-5.93 613.8-16.31 613-15.72Q608.92-12.72 608.92-9.55L608.92-9.55Q608.92-6.67 610.79-4.93 612.65-3.2 615.9-3.2ZM611.82-27.54L611.82-27.54Q611.82-25.2 614.71-21.68L614.71-21.68 617.59-23.71Q619.25-24.88 619.86-25.94 620.47-27 620.47-28.52L620.47-28.52Q620.47-30.15 619.25-31.24 618.03-32.32 616.17-32.32L616.17-32.32Q614.17-32.32 613-30.97 611.82-29.61 611.82-27.54ZM676.86-18.87L676.86-16.63Q676.86-11.4 675.1-7.51 673.34-3.61 670.12-1.56 666.9 0.49 662.6 0.49L662.6 0.49Q658.4 0.49 655.15-1.57 651.91-3.64 650.11-7.46 648.32-11.28 648.27-16.31L648.27-16.31 648.27-18.87Q648.27-24 650.05-27.93 651.83-31.86 655.09-33.95 658.35-36.04 662.55-36.04L662.55-36.04Q666.82-36.04 670.08-33.97 673.34-31.91 675.1-27.99 676.86-24.07 676.86-18.87L676.86-18.87ZM672.2-16.28L672.2-18.92Q672.2-25.24 669.66-28.63 667.12-32.01 662.55-32.01L662.55-32.01Q658.11-32.01 655.56-28.63 653.01-25.24 652.93-19.24L652.93-19.24 652.93-16.63Q652.93-10.5 655.51-6.99 658.08-3.49 662.6-3.49L662.6-3.49Q667.14-3.49 669.63-6.8 672.12-10.11 672.2-16.28L672.2-16.28ZM699.59 0L699.49-2.61Q696.85 0.49 691.75 0.49L691.75 0.49Q687.53 0.49 685.32-1.97 683.11-4.42 683.08-9.23L683.08-9.23 683.08-26.42 687.6-26.42 687.6-9.35Q687.6-3.34 692.48-3.34L692.48-3.34Q697.66-3.34 699.37-7.2L699.37-7.2 699.37-26.42 703.88-26.42 703.88 0 699.59 0ZM712.35-32.81L716.87-32.81 716.87-26.42 721.8-26.42 721.8-22.92 716.87-22.92 716.87-6.54Q716.87-4.96 717.53-4.16 718.19-3.37 719.77-3.37L719.77-3.37Q720.55-3.37 721.92-3.66L721.92-3.66 721.92 0Q720.14 0.49 718.46 0.49L718.46 0.49Q715.43 0.49 713.89-1.34 712.35-3.17 712.35-6.54L712.35-6.54 712.35-22.92 707.54-22.92 707.54-26.42 712.35-26.42 712.35-32.81ZM725.97-13.09L725.97-13.43Q725.97-19.51 728.85-23.21 731.73-26.9 736.4-26.9L736.4-26.9Q741.04-26.9 743.75-23.73L743.75-23.73 743.75-37.5 748.26-37.5 748.26 0 744.11 0 743.89-2.83Q741.18 0.49 736.35 0.49L736.35 0.49Q731.76 0.49 728.87-3.27 725.97-7.03 725.97-13.09L725.97-13.09ZM730.49-12.92L730.49-12.92Q730.49-8.42 732.34-5.88 734.2-3.34 737.47-3.34L737.47-3.34Q741.77-3.34 743.75-7.2L743.75-7.2 743.75-19.34Q741.72-23.07 737.52-23.07L737.52-23.07Q734.2-23.07 732.34-20.51 730.49-17.94 730.49-12.92ZM754.07-13.13L754.07-13.45Q754.07-17.33 755.6-20.43 757.12-23.54 759.84-25.22 762.57-26.9 766.06-26.9L766.06-26.9Q771.45-26.9 774.79-23.17 778.12-19.43 778.12-13.23L778.12-13.23 778.12-12.92Q778.12-9.06 776.64-5.99 775.16-2.93 772.42-1.22 769.67 0.49 766.11 0.49L766.11 0.49Q760.74 0.49 757.4-3.25 754.07-6.98 754.07-13.13L754.07-13.13ZM758.61-12.92L758.61-12.92Q758.61-8.52 760.65-5.86 762.69-3.2 766.11-3.2L766.11-3.2Q769.55-3.2 771.58-5.9 773.6-8.59 773.6-13.45L773.6-13.45Q773.6-17.8 771.54-20.5 769.48-23.19 766.06-23.19L766.06-23.19Q762.71-23.19 760.66-20.53 758.61-17.87 758.61-12.92ZM782.58-13.13L782.58-13.45Q782.58-17.33 784.11-20.43 785.64-23.54 788.36-25.22 791.08-26.9 794.57-26.9L794.57-26.9Q799.97-26.9 803.3-23.17 806.63-19.43 806.63-13.23L806.63-13.23 806.63-12.92Q806.63-9.06 805.15-5.99 803.68-2.93 800.93-1.22 798.18 0.49 794.62 0.49L794.62 0.49Q789.25 0.49 785.92-3.25 782.58-6.98 782.58-13.13L782.58-13.13ZM787.12-12.92L787.12-12.92Q787.12-8.52 789.16-5.86 791.2-3.2 794.62-3.2L794.62-3.2Q798.06-3.2 800.09-5.9 802.11-8.59 802.11-13.45L802.11-13.45Q802.11-17.8 800.05-20.5 797.99-23.19 794.57-23.19L794.57-23.19Q791.23-23.19 789.18-20.53 787.12-17.87 787.12-12.92ZM825.06-26.56L825.06-22.36Q824.04-22.53 822.84-22.53L822.84-22.53Q818.4-22.53 816.81-18.75L816.81-18.75 816.81 0 812.29 0 812.29-26.42 816.69-26.42 816.76-23.36Q818.98-26.9 823.06-26.9L823.06-26.9Q824.38-26.9 825.06-26.56L825.06-26.56Z" opacity="1" transform="matrix(1,0,0,1,0,0)" fill="#000000" class="slogan-text-1" data-fill-palette-color="secondary" id="text-1"></path></svg></g></svg></g></svg></g></svg></g><g transform="matrix(1,0,0,1,66.78112662761086,0)"><svg viewBox="0 0 112.09126354477823 94.70141643497168" height="94.70141643497168" width="112.09126354477823"><g><svg version="1.1" xmlns="http://www.w3.org/2000/svg" xmlns:xlink="http://www.w3.org/1999/xlink" x="0" y="0" viewBox="0 0 100 84.48599243164062" enable-background="new 0 0 100 84.486" xml:space="preserve" width="112.09126354477823" height="94.70141643497168" class="icon-icon-0" data-fill-palette-color="accent" id="icon-0"><path fill="#000000" d="M13.225 63.049l2.859 2.493c3.604 3.154 4.422 6.407 2.766 8.808h6.392c2.968-10.909 12.911-18.924 24.76-18.924 11.847 0 21.79 8.021 24.76 18.924h6.393c-1.654-2.4-0.834-5.653 2.771-8.808l2.853-2.493c5.876-5.137 4.645-7.274-2.741-4.755l-3.6 1.221c-7.384 2.518-11.363-1.468-8.841-8.848l1.227-3.59c2.518-7.385 0.377-8.623-4.757-2.741l-2.501 2.86c-5.137 5.873-10.576 4.414-12.068-3.24l-0.751-3.725c-1.504-7.659-3.993-7.659-5.492 0l-0.732 3.718c-1.507 7.654-6.949 9.113-12.083 3.24l-2.494-2.855c-5.139-5.873-7.28-4.643-4.76 2.743l1.223 3.59c2.518 7.384-1.465 11.365-8.847 8.848l-3.587-1.223C8.585 55.771 7.354 57.912 13.225 63.049zM0 77.729v6.757h100v-6.757H0zM50.001 60.151c-9.191 0-16.999 5.952-19.818 14.198h39.636C67 66.104 59.192 60.151 50.001 60.151zM64.213 5.796h-8.722V0h-10.98v5.796h-8.725L50 30.418 64.213 5.796z" data-fill-palette-color="accent"></path></svg></g></svg></g><g></g></svg></g></svg></g><g><path d="M158.732 38.521A93.604 93.604 0 0 1 236.788 38.521L233.467 38.521A90.282 90.282 0 0 0 162.053 38.521L158.732 38.521M158.732 208.679A93.604 93.604 0 0 0 236.788 208.679L233.467 208.679A90.282 90.282 0 0 1 162.053 208.679L158.732 208.679" fill="#000000" stroke="transparent" data-fill-palette-color="tertiary"></path></g></svg></g><defs></defs></svg><rect width="395.52" height="247.2" fill="none" stroke="none" visibility="hidden"></rect></g></svg></g></svg>